<svg width="18" height="12" viewBox="0 0 18 12" fill="none" xmlns="http://www.w3.org/2000/svg">
<path id="Vector" d="M15.375 3H12.9474V0H1.61842C0.728289 0 0 0.675 0 1.5V9.75H1.61842C1.61842 10.995 2.70276 12 4.04605 12C5.38934 12 6.47368 10.995 6.47368 9.75H11.3289C11.3289 10.995 12.4133 12 13.7566 12C15.0999 12 16.1842 10.995 16.1842 9.75H17.8026V6L15.375 3ZM14.9704 4.125L16.5564 6H12.9474V4.125H14.9704ZM4.04605 10.5C3.60099 10.5 3.23684 10.1625 3.23684 9.75C3.23684 9.3375 3.60099 9 4.04605 9C4.49112 9 4.85526 9.3375 4.85526 9.75C4.85526 10.1625 4.49112 10.5 4.04605 10.5ZM5.8425 8.25C5.39743 7.7925 4.76625 7.5 4.04605 7.5C3.32586 7.5 2.69467 7.7925 2.24961 8.25H1.61842V1.5H11.3289V8.25H5.8425ZM13.7566 10.5C13.3115 10.5 12.9474 10.1625 12.9474 9.75C12.9474 9.3375 13.3115 9 13.7566 9C14.2016 9 14.5658 9.3375 14.5658 9.75C14.5658 10.1625 14.2016 10.5 13.7566 10.5Z" fill="#5993DD"/>
</svg>
